<svg version="1.1" id="Layer_1" xmlns="http://www.w3.org/2000/svg" xmlns:xlink="http://www.w3.org/1999/xlink" x="0px" y="0px"
	 width="100%" viewBox="0 0 500 500" enable-background="new 0 0 500 500" xml:space="preserve">
<path fill="#000000" opacity="1.000000" stroke="none" 
	d="
M293.000000,501.000000 
	C195.333359,501.000000 98.166710,501.000000 1.000052,501.000000 
	C1.000035,334.333405 1.000035,167.666794 1.000017,1.000142 
	C167.666565,1.000094 334.333130,1.000094 500.999756,1.000047 
	C500.999847,167.666519 500.999847,334.333038 500.999939,500.999786 
	C431.833344,501.000000 362.666656,501.000000 293.000000,501.000000 
M172.021408,227.024734 
	C172.021408,227.024734 172.042465,227.098114 171.471497,227.318069 
	C170.849594,228.106384 170.227692,228.894699 169.743683,229.766556 
	C169.743683,229.766556 169.671204,229.622543 169.175186,229.812851 
	C168.987549,230.102829 168.799896,230.392792 168.563995,230.668274 
	C168.563995,230.668274 168.520172,230.643433 167.984924,231.015823 
	C166.274704,232.826294 164.754028,234.882645 162.805862,236.384430 
	C160.420380,238.223282 157.807693,240.650635 155.065674,240.991226 
	C142.999741,242.489975 135.344009,254.067703 139.083801,266.714600 
	C135.425644,272.233582 131.740646,277.199158 124.176994,278.233521 
	C114.227051,279.594269 107.691345,289.495880 109.547073,298.926270 
	C111.437935,308.535217 120.849617,315.617035 129.724838,314.109009 
	C140.605728,312.260223 146.897598,303.448303 145.098114,292.578339 
	C144.443146,288.621948 151.764786,280.184784 155.950958,279.630402 
	C162.026627,278.825806 167.293533,279.572784 171.036423,285.145050 
	C172.025635,286.617737 174.017044,287.426331 174.972290,288.910553 
	C176.304718,290.980835 177.843170,293.353546 177.986282,295.677338 
	C178.542801,304.712738 184.409592,311.937225 193.474289,313.948792 
	C200.228119,315.447571 208.549850,311.507629 211.968613,305.192596 
	C216.139084,297.489044 214.507370,288.245392 207.703491,281.481110 
	C207.138062,281.288330 206.572617,281.095551 206.015961,280.976044 
	C206.015961,280.976044 206.085449,280.951233 205.727844,280.323456 
	C202.937012,279.408966 200.082581,277.579865 197.368423,277.768555 
	C191.540573,278.173706 187.738953,275.441650 183.914413,271.717957 
	C180.149429,268.052246 175.406860,265.168274 177.366028,258.647461 
	C177.662292,257.661346 177.330276,256.188507 176.750687,255.286728 
	C173.599121,250.383011 175.830231,246.976379 179.621277,243.885605 
	C179.849548,243.699478 179.905182,243.301605 180.629852,242.699036 
	C186.912445,236.113403 193.195053,229.527756 200.660110,221.702621 
	C200.355408,226.619766 200.469254,230.148972 199.844086,233.542007 
	C199.022552,238.000763 200.660507,240.622284 204.837128,241.705200 
	C209.023117,242.790527 213.320877,240.469101 213.833252,236.256180 
	C214.849777,227.897964 215.272079,219.467484 216.424881,210.583755 
	C216.637070,208.219070 216.641449,205.813339 217.098892,203.497101 
	C218.725388,195.261551 213.299408,189.981583 205.829483,192.371048 
	C201.950485,193.611862 197.913162,194.357788 193.251205,195.377045 
	C191.535233,195.931564 189.819260,196.486084 188.036209,197.000336 
	C188.036209,197.000336 187.998154,197.068710 187.172684,196.999786 
	C182.030945,198.253876 176.883713,199.485962 171.749039,200.768326 
	C166.818695,201.999680 164.703217,205.043732 165.742172,209.315140 
	C166.692810,213.223450 170.730835,215.537277 175.087784,214.637573 
	C177.764572,214.084854 180.431015,213.482086 184.532196,212.591110 
	C180.070709,217.842529 176.583084,221.947662 172.606186,226.197327 
	C172.436172,226.478287 172.266159,226.759247 172.021408,227.024734 
M141.675461,236.821899 
	C148.142242,230.570129 147.793747,218.255905 140.920807,212.157257 
	C133.529465,205.598663 123.458847,203.962479 114.222855,212.371597 
	C113.484894,213.259552 112.660645,214.089813 112.022522,215.044510 
	C106.596817,223.161896 108.758568,234.225327 116.881584,240.074875 
	C124.966362,245.896851 135.077835,244.682053 141.675461,236.821899 
M276.985901,255.526779 
	C276.338562,256.771606 275.196747,257.991608 275.132874,259.265686 
	C274.905121,263.806824 275.043854,268.366302 275.043854,271.843262 
	C269.226837,271.143494 263.708618,269.070404 258.928406,270.179077 
	C246.506943,273.060089 240.701553,282.618103 242.048172,295.392029 
	C243.673569,310.810333 260.152771,319.385437 271.831940,311.879730 
	C272.617096,311.375183 274.229218,310.717560 274.439331,310.971832 
	C278.238037,315.568909 282.872131,312.159149 287.261902,312.889618 
	C287.261902,293.578308 287.261902,274.729553 287.261902,255.368774 
	C283.767975,255.368774 280.817902,255.368774 276.985901,255.526779 
M375.297882,285.493652 
	C375.297882,280.637817 375.297882,275.781952 375.297882,270.622772 
	C371.422394,270.622772 367.533905,269.519775 364.960205,270.888733 
	C361.357880,272.804810 358.998657,270.690247 356.062256,270.348206 
	C352.718140,269.958679 349.097382,269.454712 345.954041,270.311218 
	C337.545013,272.602478 332.995941,278.662231 331.206635,287.128387 
	C329.385284,295.746460 332.599609,306.094696 339.226929,310.624268 
	C346.731018,315.753021 354.430481,316.538879 361.867188,310.465027 
	C364.585022,313.710144 368.012238,314.112305 375.298279,312.176575 
	C375.298279,303.646606 375.298279,295.071381 375.297882,285.493652 
M242.736160,222.499908 
	C242.736160,230.942459 242.736160,239.385025 242.736160,248.060089 
	C247.111725,248.060089 250.858810,248.060089 255.606537,248.060089 
	C255.606537,242.546310 255.606537,237.158463 255.606537,230.362778 
	C264.081055,240.105438 268.777008,253.206131 284.644562,247.214218 
	C279.040771,240.354401 273.389526,233.436462 267.704956,226.477737 
	C272.960419,219.778931 278.004791,213.349182 283.721222,206.062820 
	C280.694427,206.062820 278.897827,206.265167 277.162384,206.025253 
	C271.732910,205.274704 267.755951,206.730301 264.797607,211.832550 
	C262.677307,215.489441 259.285339,218.409027 256.460724,221.657547 
	C256.088501,221.476181 255.716293,221.294815 255.344086,221.113449 
	C255.344086,210.873581 255.344086,200.633713 255.344086,189.825989 
	C251.010300,189.825989 247.196854,189.825989 242.736694,189.825989 
	C242.736694,200.647491 242.736694,211.073441 242.736160,222.499908 
M369.059906,236.379654 
	C370.457550,238.229950 371.814484,240.112762 373.260223,241.924698 
	C378.501129,248.493164 384.190826,250.084030 393.130219,247.165558 
	C389.408722,242.704422 385.848999,238.406937 382.256348,234.137146 
	C375.656158,226.292953 375.709167,226.351685 382.533813,218.332077 
	C385.655548,214.663681 388.483032,210.744843 391.615082,206.719711 
	C382.564026,204.741913 375.752472,205.880539 371.361023,214.043411 
	C369.846405,216.858841 367.030457,218.974213 363.835022,222.477020 
	C363.835022,210.709427 363.835022,200.511948 363.835022,190.139206 
	C361.139343,189.875504 358.865967,189.671936 356.597046,189.427109 
	C352.358337,188.969711 350.942688,190.632095 351.130585,195.044556 
	C351.512512,204.015396 351.237793,213.014145 351.236053,222.001389 
	C351.234406,230.610153 351.235718,239.218933 351.235718,247.968735 
	C355.655212,247.968735 359.554504,247.968735 363.959198,247.968735 
	C363.959198,242.405136 363.959198,237.187393 363.959198,231.969635 
	C364.426544,231.678894 364.893921,231.388138 365.361267,231.097382 
	C366.482513,232.631210 367.603760,234.165039 369.059906,236.379654 
M342.243561,234.110397 
	C339.598633,231.855225 337.130737,231.339584 334.793549,234.614761 
	C334.249542,235.377121 333.211212,235.799850 332.373718,236.337418 
	C328.567932,238.780289 324.647034,238.500107 321.498627,235.596466 
	C318.064026,232.428818 316.545380,228.389053 318.320129,223.487167 
	C319.782593,219.447678 322.265778,216.463135 326.578369,217.138397 
	C330.681061,217.780777 334.571289,219.780258 339.624573,221.559708 
	C341.247131,220.323151 344.066650,218.174438 346.845398,216.056793 
	C340.254425,205.660309 329.887726,202.444519 317.932068,206.711899 
	C310.162292,209.485199 303.789093,221.020142 305.123566,229.894073 
	C306.847992,241.361160 314.653015,248.738953 326.016357,249.643234 
	C334.946411,250.353867 344.258820,245.052841 346.360565,237.852936 
	C345.241058,236.809647 344.029449,235.680496 342.243561,234.110397 
M300.566864,302.463684 
	C299.124634,301.778961 297.682434,301.094269 296.151062,300.367218 
	C294.881683,302.235779 293.249756,303.733582 292.843140,305.511566 
	C292.493256,307.041870 293.014282,309.896484 294.053894,310.441376 
	C302.380737,314.805725 311.169098,316.657043 320.166992,312.588837 
	C325.076691,310.368988 327.471222,306.076599 327.847260,300.716095 
	C328.202209,295.655945 326.025330,291.896240 321.367279,290.101685 
	C317.421814,288.581665 313.119751,287.990936 309.165253,286.489258 
	C307.510895,285.860992 306.346924,283.941315 304.959991,282.608765 
	C306.572968,281.634460 308.272247,279.725922 309.782410,279.865387 
	C313.907684,280.246307 317.953247,281.490753 322.568573,282.512299 
	C323.776001,279.990417 325.196350,277.023834 327.241119,272.753113 
	C320.418152,271.446808 314.717438,269.700104 308.943451,269.409607 
	C301.067078,269.013428 293.518188,275.065155 292.773865,281.238922 
	C291.817871,289.168152 295.557709,293.817413 305.113617,296.400391 
	C307.325592,296.998291 309.766052,296.947052 311.829895,297.829498 
	C313.277924,298.448639 314.265259,300.145294 315.458313,301.360748 
	C313.964722,302.356140 312.467621,304.182312 310.978302,304.176056 
	C307.761536,304.162476 304.548706,303.208710 300.566864,302.463684 
M295.322662,205.689209 
	C288.096375,205.770538 288.102570,205.770523 288.116852,212.602386 
	C288.129395,218.599533 288.127380,224.596710 288.129272,230.593872 
	C288.131104,236.349411 288.129669,242.104935 288.129669,248.268097 
	C291.136292,248.268097 293.473846,248.023346 295.740417,248.320480 
	C300.087219,248.890305 301.068329,246.947266 300.987030,242.944092 
	C300.767761,232.148010 300.786285,221.341095 301.018860,210.545120 
	C301.099945,206.781586 299.741730,205.364441 295.322662,205.689209 
M287.553223,190.543137 
	C285.963531,193.999756 286.597076,197.264053 289.598175,199.302429 
	C291.398743,200.525406 294.599548,201.514389 296.237396,200.709259 
	C298.535095,199.579727 301.204956,196.798218 301.416656,194.510559 
	C301.629059,192.215042 299.600647,188.660065 297.513855,187.447235 
	C294.279083,185.567184 290.416931,186.127106 287.553223,190.543137 
z"/>
<path fill="#B34BBC" opacity="1.000000" stroke="none" 
	d="
M207.886749,282.069061 
	C214.507370,288.245392 216.139084,297.489044 211.968613,305.192596 
	C208.549850,311.507629 200.228119,315.447571 193.474289,313.948792 
	C184.409592,311.937225 178.542801,304.712738 177.986282,295.677338 
	C177.843170,293.353546 176.304718,290.980835 174.972290,288.910553 
	C174.017044,287.426331 172.025635,286.617737 171.036423,285.145050 
	C167.293533,279.572784 162.026627,278.825806 155.950958,279.630402 
	C151.764786,280.184784 144.443146,288.621948 145.098114,292.578339 
	C146.897598,303.448303 140.605728,312.260223 129.724838,314.109009 
	C120.849617,315.617035 111.437935,308.535217 109.547073,298.926270 
	C107.691345,289.495880 114.227051,279.594269 124.176994,278.233521 
	C131.740646,277.199158 135.425644,272.233582 139.411713,266.202820 
	C141.469772,265.787964 143.361740,265.469910 144.896317,266.068329 
	C148.091034,267.314148 150.965332,269.908264 154.206543,270.401093 
	C161.455093,271.503265 167.760742,276.721344 175.572922,275.164917 
	C176.291458,275.021759 177.137207,275.662292 177.947342,275.811554 
	C187.324097,277.538971 196.705368,279.241852 206.085449,280.951233 
	C206.085449,280.951233 206.015961,280.976044 206.152283,281.198883 
	C206.821335,281.637482 207.354050,281.853271 207.886749,282.069061 
M132.384125,300.806122 
	C135.115341,296.042847 134.595963,292.418213 130.852509,290.116943 
	C127.978714,288.350311 123.083282,289.166199 121.970444,292.400604 
	C121.155937,294.767883 121.451828,298.329987 122.753548,300.428741 
	C124.890747,303.874573 128.497955,303.626251 132.384125,300.806122 
M195.631180,289.331848 
	C189.995544,291.335632 187.661835,295.954590 190.951675,299.633026 
	C192.471603,301.332489 195.653961,302.483368 197.969437,302.316132 
	C201.564941,302.056519 203.041733,299.026306 202.783020,295.466461 
	C202.499695,291.568237 200.289597,289.549957 195.631180,289.331848 
z"/>
<path fill="#F6F5F6" opacity="1.000000" stroke="none" 
	d="
M277.426849,255.447784 
	C280.817902,255.368774 283.767975,255.368774 287.261902,255.368774 
	C287.261902,274.729553 287.261902,293.578308 287.261902,312.889618 
	C282.872131,312.159149 278.238037,315.568909 274.439331,310.971832 
	C274.229218,310.717560 272.617096,311.375183 271.831940,311.879730 
	C260.152771,319.385437 243.673569,310.810333 242.048172,295.392029 
	C240.701553,282.618103 246.506943,273.060089 258.928406,270.179077 
	C263.708618,269.070404 269.226837,271.143494 275.043854,271.843262 
	C275.043854,268.366302 274.905121,263.806824 275.132874,259.265686 
	C275.196747,257.991608 276.338562,256.771606 277.426849,255.447784 
M254.924805,288.567566 
	C253.478256,294.588135 256.529694,301.251373 261.290436,302.467804 
	C267.026184,303.933319 272.260712,301.380554 274.277069,296.134430 
	C276.249268,291.003052 273.711090,284.037323 269.137360,282.029083 
	C263.729706,279.654724 258.233307,281.957916 254.924805,288.567566 
z"/>
<path fill="#F6F5F6" opacity="1.000000" stroke="none" 
	d="
M375.298096,285.994904 
	C375.298279,295.071381 375.298279,303.646606 375.298279,312.176575 
	C368.012238,314.112305 364.585022,313.710144 361.867188,310.465027 
	C354.430481,316.538879 346.731018,315.753021 339.226929,310.624268 
	C332.599609,306.094696 329.385284,295.746460 331.206635,287.128387 
	C332.995941,278.662231 337.545013,272.602478 345.954041,270.311218 
	C349.097382,269.454712 352.718140,269.958679 356.062256,270.348206 
	C358.998657,270.690247 361.357880,272.804810 364.960205,270.888733 
	C367.533905,269.519775 371.422394,270.622772 375.297882,270.622772 
	C375.297882,275.781952 375.297882,280.637817 375.298096,285.994904 
M358.347382,282.567841 
	C356.418182,282.295837 354.496643,281.933167 352.558289,281.769623 
	C347.626770,281.353607 345.028442,283.894653 343.792236,288.502533 
	C342.224640,294.345490 343.138947,298.156830 347.554962,301.130554 
	C351.516113,303.798035 355.557709,303.729767 359.401703,300.728607 
	C364.788269,296.523102 364.613037,288.861237 358.347382,282.567841 
z"/>
<path fill="#F6F5F6" opacity="1.000000" stroke="none" 
	d="
M242.736420,221.999649 
	C242.736694,211.073441 242.736694,200.647491 242.736694,189.825989 
	C247.196854,189.825989 251.010300,189.825989 255.344086,189.825989 
	C255.344086,200.633713 255.344086,210.873581 255.344086,221.113449 
	C255.716293,221.294815 256.088501,221.476181 256.460724,221.657547 
	C259.285339,218.409027 262.677307,215.489441 264.797607,211.832550 
	C267.755951,206.730301 271.732910,205.274704 277.162384,206.025253 
	C278.897827,206.265167 280.694427,206.062820 283.721222,206.062820 
	C278.004791,213.349182 272.960419,219.778931 267.704956,226.477737 
	C273.389526,233.436462 279.040771,240.354401 284.644562,247.214218 
	C268.777008,253.206131 264.081055,240.105438 255.606537,230.362778 
	C255.606537,237.158463 255.606537,242.546310 255.606537,248.060089 
	C250.858810,248.060089 247.111725,248.060089 242.736160,248.060089 
	C242.736160,239.385025 242.736160,230.942459 242.736420,221.999649 
z"/>
<path fill="#F4F3F4" opacity="1.000000" stroke="none" 
	d="
M368.892456,236.039261 
	C367.603760,234.165039 366.482513,232.631210 365.361267,231.097382 
	C364.893921,231.388138 364.426544,231.678894 363.959198,231.969635 
	C363.959198,237.187393 363.959198,242.405136 363.959198,247.968735 
	C359.554504,247.968735 355.655212,247.968735 351.235718,247.968735 
	C351.235718,239.218933 351.234406,230.610153 351.236053,222.001389 
	C351.237793,213.014145 351.512512,204.015396 351.130585,195.044556 
	C350.942688,190.632095 352.358337,188.969711 356.597046,189.427109 
	C358.865967,189.671936 361.139343,189.875504 363.835022,190.139206 
	C363.835022,200.511948 363.835022,210.709427 363.835022,222.477020 
	C367.030457,218.974213 369.846405,216.858841 371.361023,214.043411 
	C375.752472,205.880539 382.564026,204.741913 391.615082,206.719711 
	C388.483032,210.744843 385.655548,214.663681 382.533813,218.332077 
	C375.709167,226.351685 375.656158,226.292953 382.256348,234.137146 
	C385.848999,238.406937 389.408722,242.704422 393.130219,247.165558 
	C384.190826,250.084030 378.501129,248.493164 373.260223,241.924698 
	C371.814484,240.112762 370.457550,238.229950 368.892456,236.039261 
z"/>
<path fill="#F4F3F4" opacity="1.000000" stroke="none" 
	d="
M342.530701,234.330872 
	C344.029449,235.680496 345.241058,236.809647 346.360565,237.852936 
	C344.258820,245.052841 334.946411,250.353867 326.016357,249.643234 
	C314.653015,248.738953 306.847992,241.361160 305.123566,229.894073 
	C303.789093,221.020142 310.162292,209.485199 317.932068,206.711899 
	C329.887726,202.444519 340.254425,205.660309 346.845398,216.056793 
	C344.066650,218.174438 341.247131,220.323151 339.624573,221.559708 
	C334.571289,219.780258 330.681061,217.780777 326.578369,217.138397 
	C322.265778,216.463135 319.782593,219.447678 318.320129,223.487167 
	C316.545380,228.389053 318.064026,232.428818 321.498627,235.596466 
	C324.647034,238.500107 328.567932,238.780289 332.373718,236.337418 
	C333.211212,235.799850 334.249542,235.377121 334.793549,234.614761 
	C337.130737,231.339584 339.598633,231.855225 342.530701,234.330872 
z"/>
<path fill="#F4F3F4" opacity="1.000000" stroke="none" 
	d="
M300.950562,302.551636 
	C304.548706,303.208710 307.761536,304.162476 310.978302,304.176056 
	C312.467621,304.182312 313.964722,302.356140 315.458313,301.360748 
	C314.265259,300.145294 313.277924,298.448639 311.829895,297.829498 
	C309.766052,296.947052 307.325592,296.998291 305.113617,296.400391 
	C295.557709,293.817413 291.817871,289.168152 292.773865,281.238922 
	C293.518188,275.065155 301.067078,269.013428 308.943451,269.409607 
	C314.717438,269.700104 320.418152,271.446808 327.241119,272.753113 
	C325.196350,277.023834 323.776001,279.990417 322.568573,282.512299 
	C317.953247,281.490753 313.907684,280.246307 309.782410,279.865387 
	C308.272247,279.725922 306.572968,281.634460 304.959991,282.608765 
	C306.346924,283.941315 307.510895,285.860992 309.165253,286.489258 
	C313.119751,287.990936 317.421814,288.581665 321.367279,290.101685 
	C326.025330,291.896240 328.202209,295.655945 327.847260,300.716095 
	C327.471222,306.076599 325.076691,310.368988 320.166992,312.588837 
	C311.169098,316.657043 302.380737,314.805725 294.053894,310.441376 
	C293.014282,309.896484 292.493256,307.041870 292.843140,305.511566 
	C293.249756,303.733582 294.881683,302.235779 296.151062,300.367218 
	C297.682434,301.094269 299.124634,301.778961 300.950562,302.551636 
z"/>
<path fill="#785ECD" opacity="1.000000" stroke="none" 
	d="
M205.906647,280.637329 
	C196.705368,279.241852 187.324097,277.538971 177.947342,275.811554 
	C177.137207,275.662292 176.291458,275.021759 175.572922,275.164917 
	C167.760742,276.721344 161.455093,271.503265 154.206543,270.401093 
	C150.965332,269.908264 148.091034,267.314148 144.896317,266.068329 
	C143.361740,265.469910 141.469772,265.787964 139.405975,265.840820 
	C135.344009,254.067703 142.999741,242.489975 155.065674,240.991226 
	C157.807693,240.650635 160.420380,238.223282 162.805862,236.384430 
	C164.754028,234.882645 166.274704,232.826294 168.360092,231.184814 
	C168.157333,233.571228 167.007401,235.331436 168.799881,238.049423 
	C171.700714,242.448059 174.594681,245.150894 180.041153,243.002274 
	C179.905182,243.301605 179.849548,243.699478 179.621277,243.885605 
	C175.830231,246.976379 173.599121,250.383011 176.750687,255.286728 
	C177.330276,256.188507 177.662292,257.661346 177.366028,258.647461 
	C175.406860,265.168274 180.149429,268.052246 183.914413,271.717957 
	C187.738953,275.441650 191.540573,278.173706 197.368423,277.768555 
	C200.082581,277.579865 202.937012,279.408966 205.906647,280.637329 
M150.871674,255.429932 
	C150.422684,256.498688 149.396378,257.719727 149.630783,258.608185 
	C150.394775,261.504028 150.855682,265.309448 152.881256,266.809296 
	C154.903198,268.306427 159.149582,268.451447 161.525253,267.315826 
	C163.564804,266.340881 165.413284,262.704224 165.374023,260.276489 
	C165.334488,257.833038 163.424484,254.526352 161.324646,253.217789 
	C158.126877,251.225006 154.254974,251.729462 150.871674,255.429932 
z"/>
<path fill="#4BA1EC" opacity="1.000000" stroke="none" 
	d="
M193.947372,195.327271 
	C197.913162,194.357788 201.950485,193.611862 205.829483,192.371048 
	C213.299408,189.981583 218.725388,195.261551 217.098892,203.497101 
	C216.641449,205.813339 216.637070,208.219070 215.853531,210.858643 
	C214.978271,211.637756 214.438538,212.128067 214.407852,212.648376 
	C214.165909,216.753677 214.075974,220.867950 213.830948,224.972992 
	C213.587479,229.052551 209.805862,229.275406 207.157059,230.395065 
	C206.751617,230.566437 204.926437,227.505432 203.841705,225.883331 
	C203.386703,225.202957 203.205215,224.346039 202.804550,223.621841 
	C201.184616,220.693893 199.536713,219.232712 196.225876,222.139572 
	C195.208008,223.033264 191.445435,222.671112 190.665558,221.612518 
	C188.387070,218.519852 186.979416,214.785629 184.768402,210.382751 
	C183.104553,209.749084 179.952896,208.548767 175.494720,206.850876 
	C178.270065,205.305527 179.404129,204.674072 180.722046,203.940231 
	C179.365982,203.102188 178.420715,202.518005 176.744324,201.481995 
	C179.435699,200.772812 181.251083,200.482437 182.909210,199.806396 
	C184.682770,199.083298 186.308105,197.996643 187.998138,197.068695 
	C187.998154,197.068710 188.036209,197.000336 188.428207,197.041290 
	C190.529266,196.497253 192.238312,195.912262 193.947372,195.327271 
z"/>
<path fill="#5584D9" opacity="1.000000" stroke="none" 
	d="
M187.585419,197.034241 
	C186.308105,197.996643 184.682770,199.083298 182.909210,199.806396 
	C181.251083,200.482437 179.435699,200.772812 176.744324,201.481995 
	C178.420715,202.518005 179.365982,203.102188 180.722046,203.940231 
	C179.404129,204.674072 178.270065,205.305527 175.494720,206.850876 
	C179.952896,208.548767 183.104553,209.749084 184.768402,210.382751 
	C186.979416,214.785629 188.387070,218.519852 190.665558,221.612518 
	C191.445435,222.671112 195.208008,223.033264 196.225876,222.139572 
	C199.536713,219.232712 201.184616,220.693893 202.804550,223.621841 
	C203.205215,224.346039 203.386703,225.202957 203.841705,225.883331 
	C204.926437,227.505432 206.751617,230.566437 207.157059,230.395065 
	C209.805862,229.275406 213.587479,229.052551 213.830948,224.972992 
	C214.075974,220.867950 214.165909,216.753677 214.407852,212.648376 
	C214.438538,212.128067 214.978271,211.637756 215.611069,211.100220 
	C215.272079,219.467484 214.849777,227.897964 213.833252,236.256180 
	C213.320877,240.469101 209.023117,242.790527 204.837128,241.705200 
	C200.660507,240.622284 199.022552,238.000763 199.844086,233.542007 
	C200.469254,230.148972 200.355408,226.619766 200.660110,221.702621 
	C193.195053,229.527756 186.912445,236.113403 180.335510,242.850647 
	C174.594681,245.150894 171.700714,242.448059 168.799881,238.049423 
	C167.007401,235.331436 168.157333,233.571228 168.627716,230.998627 
	C168.520172,230.643433 168.563995,230.668274 168.890228,230.657623 
	C169.368057,230.305496 169.519638,229.964020 169.671204,229.622543 
	C169.671204,229.622543 169.743683,229.766556 170.015747,229.723907 
	C170.872696,228.820221 171.457581,227.959167 172.042465,227.098114 
	C172.042465,227.098114 172.021408,227.024734 172.273438,227.018311 
	C172.715469,226.692200 172.905472,226.372498 173.095459,226.052795 
	C176.583084,221.947662 180.070709,217.842529 184.532196,212.591110 
	C180.431015,213.482086 177.764572,214.084854 175.087784,214.637573 
	C170.730835,215.537277 166.692810,213.223450 165.742172,209.315140 
	C164.703217,205.043732 166.818695,201.999680 171.749039,200.768326 
	C176.883713,199.485962 182.030945,198.253876 187.585419,197.034241 
z"/>
<path fill="#F4F3F4" opacity="1.000000" stroke="none" 
	d="
M295.742798,205.712433 
	C299.741730,205.364441 301.099945,206.781586 301.018860,210.545120 
	C300.786285,221.341095 300.767761,232.148010 300.987030,242.944092 
	C301.068329,246.947266 300.087219,248.890305 295.740417,248.320480 
	C293.473846,248.023346 291.136292,248.268097 288.129669,248.268097 
	C288.129669,242.104935 288.131104,236.349411 288.129272,230.593872 
	C288.127380,224.596710 288.129395,218.599533 288.116852,212.602386 
	C288.102570,205.770523 288.096375,205.770538 295.742798,205.712433 
z"/>
<path fill="#785ECD" opacity="1.000000" stroke="none" 
	d="
M141.079865,237.167648 
	C135.077835,244.682053 124.966362,245.896851 116.881584,240.074875 
	C108.758568,234.225327 106.596817,223.161896 112.022522,215.044510 
	C112.660645,214.089813 113.484894,213.259552 114.896935,212.170166 
	C120.743378,213.139755 119.996445,217.847000 121.202011,221.803345 
	C120.392082,225.804810 120.298332,229.076477 124.187752,231.184143 
	C128.147202,233.329742 131.083908,231.699875 134.200287,229.000916 
	C136.737396,231.754807 138.908630,234.461227 141.079865,237.167648 
z"/>
<path fill="#5584D9" opacity="1.000000" stroke="none" 
	d="
M121.199074,221.389557 
	C119.996445,217.847000 120.743378,213.139755 115.222290,211.974335 
	C123.458847,203.962479 133.529465,205.598663 140.920807,212.157257 
	C147.793747,218.255905 148.142242,230.570129 141.377655,236.994781 
	C138.908630,234.461227 136.737396,231.754807 134.282623,228.634583 
	C135.061966,224.778397 135.080658,221.395950 131.564774,219.483673 
	C127.817497,217.445541 124.222443,218.389801 121.199074,221.389557 
z"/>
<path fill="#F4F3F4" opacity="1.000000" stroke="none" 
	d="
M287.775330,190.218445 
	C290.416931,186.127106 294.279083,185.567184 297.513855,187.447235 
	C299.600647,188.660065 301.629059,192.215042 301.416656,194.510559 
	C301.204956,196.798218 298.535095,199.579727 296.237396,200.709259 
	C294.599548,201.514389 291.398743,200.525406 289.598175,199.302429 
	C286.597076,197.264053 285.963531,193.999756 287.775330,190.218445 
z"/>
<path fill="#5584D9" opacity="1.000000" stroke="none" 
	d="
M193.599289,195.352158 
	C192.238312,195.912262 190.529266,196.497253 188.461746,197.061432 
	C189.819260,196.486084 191.535233,195.931564 193.599289,195.352158 
z"/>
<path fill="#785ECD" opacity="1.000000" stroke="none" 
	d="
M171.756989,227.208099 
	C171.457581,227.959167 170.872696,228.820221 169.946808,229.682159 
	C170.227692,228.894699 170.849594,228.106384 171.756989,227.208099 
z"/>
<path fill="#785ECD" opacity="1.000000" stroke="none" 
	d="
M207.795120,281.775085 
	C207.354050,281.853271 206.821335,281.637482 206.147903,281.162231 
	C206.572617,281.095551 207.138062,281.288330 207.795120,281.775085 
z"/>
<path fill="#785ECD" opacity="1.000000" stroke="none" 
	d="
M172.850830,226.125061 
	C172.905472,226.372498 172.715469,226.692200 172.310806,227.026047 
	C172.266159,226.759247 172.436172,226.478287 172.850830,226.125061 
z"/>
<path fill="#785ECD" opacity="1.000000" stroke="none" 
	d="
M169.423203,229.717697 
	C169.519638,229.964020 169.368057,230.305496 168.914368,230.664856 
	C168.799896,230.392792 168.987549,230.102829 169.423203,229.717697 
z"/>
<path fill="#000000" opacity="1.000000" stroke="none" 
	d="
M132.089203,301.073242 
	C128.497955,303.626251 124.890747,303.874573 122.753548,300.428741 
	C121.451828,298.329987 121.155937,294.767883 121.970444,292.400604 
	C123.083282,289.166199 127.978714,288.350311 130.852509,290.116943 
	C134.595963,292.418213 135.115341,296.042847 132.089203,301.073242 
z"/>
<path fill="#000000" opacity="1.000000" stroke="none" 
	d="
M196.015015,289.341919 
	C200.289597,289.549957 202.499695,291.568237 202.783020,295.466461 
	C203.041733,299.026306 201.564941,302.056519 197.969437,302.316132 
	C195.653961,302.483368 192.471603,301.332489 190.951675,299.633026 
	C187.661835,295.954590 189.995544,291.335632 196.015015,289.341919 
z"/>
<path fill="#000000" opacity="1.000000" stroke="none" 
	d="
M255.078003,288.211975 
	C258.233307,281.957916 263.729706,279.654724 269.137360,282.029083 
	C273.711090,284.037323 276.249268,291.003052 274.277069,296.134430 
	C272.260712,301.380554 267.026184,303.933319 261.290436,302.467804 
	C256.529694,301.251373 253.478256,294.588135 255.078003,288.211975 
z"/>
<path fill="#000000" opacity="1.000000" stroke="none" 
	d="
M358.679199,282.809662 
	C364.613037,288.861237 364.788269,296.523102 359.401703,300.728607 
	C355.557709,303.729767 351.516113,303.798035 347.554962,301.130554 
	C343.138947,298.156830 342.224640,294.345490 343.792236,288.502533 
	C345.028442,283.894653 347.626770,281.353607 352.558289,281.769623 
	C354.496643,281.933167 356.418182,282.295837 358.679199,282.809662 
z"/>
<path fill="#000000" opacity="1.000000" stroke="none" 
	d="
M151.093140,255.118927 
	C154.254974,251.729462 158.126877,251.225006 161.324646,253.217789 
	C163.424484,254.526352 165.334488,257.833038 165.374023,260.276489 
	C165.413284,262.704224 163.564804,266.340881 161.525253,267.315826 
	C159.149582,268.451447 154.903198,268.306427 152.881256,266.809296 
	C150.855682,265.309448 150.394775,261.504028 149.630783,258.608185 
	C149.396378,257.719727 150.422684,256.498688 151.093140,255.118927 
z"/>
<path fill="#000000" opacity="1.000000" stroke="none" 
	d="
M121.202011,221.803345 
	C124.222443,218.389801 127.817497,217.445541 131.564774,219.483673 
	C135.080658,221.395950 135.061966,224.778397 133.916748,228.587128 
	C131.083908,231.699875 128.147202,233.329742 124.187752,231.184143 
	C120.298332,229.076477 120.392082,225.804810 121.202011,221.803345 
z"/>
</svg>